# xmcd
#
# Track frame offsets: 
#        182
#        51372
#        76750
#        107050
#        154375
#
# Disc length: 2550 seconds
#
# Revision: 7
# Processed by: cddbd v1.5.2PL0 Copyright (c) Steve Scherf et al.
# Submitted via: ExactAudioCopyFreeDBPlugin 1.0
#
DISCID=3709f405
DTITLE=Derek and The Dominos - In Concert
DYEAR=1973
DGENRE=Blues
TTITLE0=Tell The Truth
TTITLE1=Bottle Of Red Wine
TTITLE2=Roll It Over
TTITLE3=Blues Power
TTITLE4=Have You Ever Loved A Woman
EXTD=YEAR: 1973
EXTT0=
EXTT1=
EXTT2=
EXTT3=
EXTT4=
PLAYORDER=
